<svg width="199" height="50" xmlns="http://www.w3.org/2000/svg">

 <g>
  <title>background</title>
  <rect fill="none" id="canvas_background" height="402" width="582" y="-1" x="-1"/>
 </g>
 <g>
  <title>Layer 1</title>
  <ellipse id="svg_1" fill="white" ry="24.5" rx="24" cy="25.5" cx="25"/>
  <path id="svg_2" fill="#D41443" d="m18.5144,0.87746c-11.57151,3.50402 -18.5144,12.61444 -18.5144,24.12764c0,9.4108 4.82984,17.6202 12.779,21.7249c4.1254,2.1024 4.7292,0.6007 0.9055,-2.3027c-2.7167,-2.2025 -3.2198,-3.2036 -3.2198,-6.9079c0,-2.603 -0.60378,-4.7054 -1.50937,-5.5063c-1.81119,-1.5017 -2.01244,-5.4062 -0.20125,-6.8078c0.70436,-0.6007 1.40872,-2.603 1.50932,-4.405c0.5031,-6.6076 7.6473,-12.8147 14.7914,-12.8147c7.1441,0 14.2883,6.2071 14.7914,12.8147c0.1006,1.802 0.8049,3.8043 1.5093,4.405c1.8112,1.4016 1.6099,5.3061 -0.2012,6.8078c-0.9056,0.8009 -1.5094,2.9033 -1.5094,5.5063c0,3.7043 -0.5031,4.7054 -3.2199,6.9079c-4.2261,3.3038 -3.0186,4.5052 1.7106,1.6019c6.641,-4.1047 11.5715,-13.0149 11.5715,-20.924c0,-15.81811 -16.502,-28.63278 -31.1927,-24.22774z"/>
  <path id="svg_3" fill="#D41443" d="m19.8225,12.4908c-1.8112,0.8009 -3.3205,1.802 -3.3205,2.4027c0,1.1013 5.4335,3.1036 8.5528,3.1036c3.1193,0 8.5528,-2.0023 8.5528,-3.1036c0,-1.2014 -6.2385,-3.9045 -8.7541,-3.9045c-1.0062,0.1002 -3.3205,0.7008 -5.031,1.5018z"/>
  <path id="svg_12" fill="#D41443" d="m14.0869,18.6978c-0.3019,0.4005 -0.6037,1.702 -0.6037,3.0035c0,2.3026 0.1006,2.3026 11.5714,2.3026c11.4709,0 11.5715,0 11.5715,-2.3026c0,-3.4039 -0.9056,-3.8044 -4.1255,-2.2026c-3.6223,1.9022 -11.2696,1.9022 -14.892,0c-1.6099,-0.8009 -3.1192,-1.1012 -3.5217,-0.8009z"/>
  <path id="svg_13" fill="#D41443" d="m11.1688,27.608c-1.6099,1.702 1.1069,2.4028 8.9554,2.4028l8.4522,0l0,3.504c0,1.9022 0.5031,3.504 1.0062,3.504c0.6037,0 1.0062,-1.5017 1.0062,-3.4039c0,-3.3038 0.2013,-3.504 4.0249,-3.8044c2.2137,-0.2002 4.0249,-0.8009 4.0249,-1.3014c0,-1.1013 -26.3629,-2.0023 -27.4698,-0.9011z"/>
  <path id="svg_14" fill="#D41443" d="m13.4832,36.4181c0,5.5063 1.9118,6.6075 11.5714,6.6075c9.6597,0 11.5715,-1.1012 11.5715,-6.6075c0,-2.4028 -0.5031,-3.4039 -1.5093,-3.4039c-0.9056,0 -1.5093,0.901 -1.5093,2.4027c0,5.6064 -7.6473,6.107 -8.7541,0.6007c-0.5031,-2.9033 -0.805,-3.0034 -5.9367,-3.0034l-5.4335,0l0,3.4039z"/>
  <path id="svg_15" fill="#D41443" d="m19.722,47.7312c0.6037,3.2037 10.8672,2.9033 10.8672,-0.2002c0,-1.1013 -1.3081,-1.5018 -5.6349,-1.5018c-4.7292,0 -5.5342,0.3004 -5.2323,1.702z"/>
 </g>
</svg>